<svg xmlns:dc="http://purl.org/dc/elements/1.1/" xmlns:cc="http://creativecommons.org/ns#" xmlns:rdf="http://www.w3.org/1999/02/22-rdf-syntax-ns#" xmlns:svg="http://www.w3.org/2000/svg" xmlns="http://www.w3.org/2000/svg" xmlns:sodipodi="http://sodipodi.sourceforge.net/DTD/sodipodi-0.dtd" xmlns:inkscape="http://www.inkscape.org/namespaces/inkscape" id="svg4161" version="1.1" inkscape:version="0.91 r13725" xml:space="preserve" viewBox="0 0 541.09998 203.32486" sodipodi:docname="graph-plain.svg" viewport="0 0 300px 112px"><metadata id="metadata4167"><rdf:RDF><cc:Work rdf:about=""><dc:format>image/svg+xml</dc:format><dc:type rdf:resource="http://purl.org/dc/dcmitype/StillImage"/><dc:title/></cc:Work></rdf:RDF></metadata><defs id="defs4165"><clipPath clipPathUnits="userSpaceOnUse" id="clipPath4177"><path d="M 0,0 450,0 450,200 0,200 0,0 Z" id="path4179" inkscape:connector-curvature="0"/></clipPath></defs><sodipodi:namedview pagecolor="#ffffff" bordercolor="#666666" borderopacity="1" objecttolerance="10" gridtolerance="10" guidetolerance="10" inkscape:pageopacity="0" inkscape:pageshadow="2" inkscape:window-width="1280" inkscape:window-height="692" id="namedview4163" showgrid="false" fit-margin-top="10" fit-margin-left="10" fit-margin-right="10" fit-margin-bottom="10" inkscape:zoom="1" inkscape:cx="268.5" inkscape:cy="107.13727" inkscape:window-x="0" inkscape:window-y="0" inkscape:window-maximized="1" inkscape:current-layer="g4169"/><g id="g4169" inkscape:groupmode="layer" inkscape:label="Untitled 2" transform="matrix(1.25,0,0,-1.25,-12.749999,221.18759)"><g id="g4171" transform="translate(1.5599992,0.670068)"/><g id="g4183" transform="matrix(1,0,0,-1,26.361369,94.290188)"><path d="m 0,0 391.1973,0 1,0" style="fill:none;stroke:#000000;stroke-width:2;stroke-linecap:butt;stroke-linejoin:miter;stroke-miterlimit:4;stroke-dasharray:none;stroke-opacity:1" id="path4185" inkscape:connector-curvature="0"/></g><g id="g4187" transform="matrix(0,1.6,1.6,0,417.5587,89.490188)"><path d="M 0,0 3,5 6,0 M 3,0 3,5" style="fill:none;stroke:#000000;stroke-width:1.25;stroke-linecap:butt;stroke-linejoin:round;stroke-miterlimit:10;stroke-dasharray:none;stroke-opacity:1" id="path4189" inkscape:connector-curvature="0"/></g><g id="g4191" transform="matrix(0,1,1,0,39.060009,22.290188)"><path d="M 0,0 87,0" style="fill:none;stroke:#000000;stroke-width:2;stroke-linecap:butt;stroke-linejoin:miter;stroke-miterlimit:4;stroke-dasharray:none;stroke-opacity:1" id="path4193" inkscape:connector-curvature="0"/></g><g id="g4195" transform="matrix(0,1,1,0,226.56,22.290188)"><path d="M 0,0 87,0" style="fill:none;stroke:#000000;stroke-width:2;stroke-linecap:butt;stroke-linejoin:miter;stroke-miterlimit:4;stroke-dasharray:none;stroke-opacity:1" id="path4197" inkscape:connector-curvature="0"/></g><g id="g4199" transform="matrix(0,1,1,0,414.06,22.290188)"><path d="M 0,0 87,0" style="fill:none;stroke:#000000;stroke-width:2;stroke-linecap:butt;stroke-linejoin:miter;stroke-miterlimit:4;stroke-dasharray:none;stroke-opacity:1" id="path4201" inkscape:connector-curvature="0"/></g><path d="m 30.343959,146.78877 c -0.19418,-0.004 -0.38624,-0.0656 -0.55117,-0.1877 l -2.04519,-1.5127 5.30529,-7.252 2.04519,1.5151 c 0.43973,0.3257 0.53205,0.9464 0.20639,1.3861 l -4.09271,5.6149 c -0.21475,0.2901 -0.54416,0.4421 -0.8678,0.4363 z m -3.16863,-2.125 c 0,0 -3.4283,-2.7233 -3.09124,-7.8688 0,0 2.05437,-5.5372 8.24877,-11.7316 6.1944,-6.1944 11.73167,-8.2511 11.73167,-8.2511 5.14546,-0.3371 7.87115,3.0912 7.87115,3.0912 l -7.25196,5.3053 c -1.25834,-1.4356 -3.15032,-1.6858 -4.54773,-0.2885 l -7.94386,7.9439 c -1.3974,1.3974 -1.14705,3.2893 0.28849,4.5477 l -5.30529,7.2519 z m 20.09536,-16.4459 c -0.2508,-0.0374 -0.4869,-0.1694 -0.64968,-0.3893 l -1.51278,-2.0452 7.24963,-5.3076 1.51512,2.0452 c 0.32565,0.4398 0.21318,1.0753 -0.25096,1.4189 l -5.61488,4.0951 c -0.21986,0.1628 -0.48565,0.2203 -0.73645,0.1829 z" style="fill:#ee220c;fill-opacity:1;fill-rule:nonzero;stroke:none" id="path4203" inkscape:connector-curvature="0"/><path d="m 217.517,148.33407 c -0.1902,0 -0.3541,-0.1582 -0.3541,-0.3568 l 0,-1.4063 0,-2.761 3.3245,0 0.008,2.761 0,1.4063 c 0,0.1903 -0.1557,0.3568 -0.3542,0.3568 l -2.624,0 z m 15.462,0 c -0.1985,0 -0.3542,-0.1665 -0.3542,-0.3568 l 0,-1.4063 0.008,-2.761 3.3245,0 0,2.761 0,1.4063 c 0,0.1986 -0.1639,0.3568 -0.3541,0.3568 l -2.624,0 z m -19.986,-3.2935 c -0.7859,0 -1.4322,-0.6355 -1.4322,-1.4296 l 0,-26.935 c 0,-0.7859 0.638,-1.4322 1.4322,-1.4322 l 27.134,0 c 0.7859,0 1.4322,0.638 1.4322,1.4322 l 0,26.935 c 0,0.7859 -0.6463,1.4296 -1.4322,1.4296 l -3.1099,0 0,-1.4374 c 0,-0.4715 -0.3894,-0.8609 -0.8609,-0.8608 l -3.7382,0 c -0.4715,0 -0.8607,0.3893 -0.8608,0.8608 l 0,1.4374 -9.9944,0 0,-1.4374 c 0,-0.4715 -0.3893,-0.8609 -0.8608,-0.8608 l -3.7382,0 c -0.4715,0 -0.8609,0.3893 -0.8609,0.8608 l 0,1.4374 -3.1099,0 z m 0.6618,-6.494 25.8104,0 0,-20.1851 -25.8104,0 0,20.1851 z m 3.1927,-3.1591 c -0.0414,0 -0.0828,-0.0414 -0.0828,-0.0827 l 0,-3.0454 c 0,-0.0496 0.0414,-0.0827 0.0828,-0.0827 l 3.0453,0 c 0.0414,0 0.0827,0.0331 0.0827,0.0827 l 0,3.0454 c 0,0.0413 -0.0413,0.0827 -0.0827,0.0827 l -3.0453,0 z m 5.3435,0 c -0.0496,0 -0.0827,-0.0414 -0.0827,-0.0827 l 0,-3.0454 c 0,-0.0496 0.0332,-0.0827 0.0827,-0.0827 l 3.0454,0 c 0.0413,0 0.0827,0.0331 0.0827,0.0827 l 0,3.0454 c 0,0.0413 -0.0414,0.0827 -0.0827,0.0827 l -3.0454,0 z m 5.6926,0 c -0.0414,0 -0.0827,-0.0414 -0.0827,-0.0827 l 0,-3.0454 c 0,-0.0496 0.0413,-0.0827 0.0827,-0.0827 l 3.0454,0 c 0.0413,0 0.0827,0.0331 0.0827,0.0827 l 0,3.0454 c 0,0.0413 -0.0414,0.0827 -0.0827,0.0827 l -3.0454,0 z m 5.3436,0 c -0.0497,0 -0.0827,-0.0414 -0.0827,-0.0827 l 0,-3.0454 c 0,-0.0496 0.033,-0.0827 0.0827,-0.0827 l 3.0453,0 c 0.0497,0 0.0828,0.0331 0.0828,0.0827 l 0,3.0454 c 0,0.0413 -0.0331,0.0827 -0.0828,0.0827 l -3.0453,0 z m -16.4288,-5.5685 c -0.0497,0 -0.0828,-0.0331 -0.0828,-0.0827 l 0,-3.0428 c 0,-0.0413 0.0331,-0.0827 0.0828,-0.0827 l 3.0453,0 c 0.0414,0 0.0827,0.0414 0.0827,0.0827 l 0,3.0428 c 0,0.0496 -0.0413,0.0827 -0.0827,0.0827 l -3.0453,0 z m 5.3435,0 c -0.0496,0 -0.0827,-0.0331 -0.0827,-0.0827 l 0,-3.0428 c 0,-0.0413 0.0331,-0.0827 0.0827,-0.0827 l 3.0454,0 c 0.0413,0 0.0827,0.0414 0.0827,0.0827 l 0,3.0428 c 0,0.0496 -0.0414,0.0827 -0.0827,0.0827 l -3.0454,0 z m 5.7908,0 c -0.0413,0 -0.0827,-0.0331 -0.0827,-0.0827 l 0,-3.0428 c 0,-0.0413 0.0414,-0.0827 0.0827,-0.0827 l 3.0454,0 c 0.0413,0 0.0827,0.0414 0.0827,0.0827 l 0,3.0428 c 0,0.0496 -0.0414,0.0827 -0.0827,0.0827 l -3.0454,0 z m 5.3436,0 c -0.0496,0 -0.0827,-0.0331 -0.0827,-0.0827 l 0,-3.0428 c 0,-0.0413 0.0331,-0.0827 0.0827,-0.0827 l 3.0453,0 c 0.0497,0 0.0828,0.0414 0.0828,0.0827 l 0,3.0428 c 0,0.0496 -0.0331,0.0827 -0.0828,0.0827 l -3.0453,0 z m -16.4779,-5.7908 c -0.0497,0 -0.0828,-0.0413 -0.0828,-0.0827 l 0,-3.0428 c 0,-0.0413 0.0331,-0.0827 0.0828,-0.0827 l 3.0453,0 c 0.0414,0 0.0827,0.0414 0.0827,0.0827 l 0,3.0428 c 0,0.0414 -0.0413,0.0827 -0.0827,0.0827 l -3.0453,0 z m 5.3435,0 c -0.0496,0 -0.0827,-0.0413 -0.0827,-0.0827 l 0,-3.0428 c 0,-0.0413 0.0331,-0.0827 0.0827,-0.0827 l 3.0454,0 c 0.0413,0 0.0827,0.0414 0.0827,0.0827 l 0,3.0428 c 0,0.0414 -0.0414,0.0827 -0.0827,0.0827 l -3.0454,0 z m 5.7908,0 c -0.0413,0 -0.0827,-0.0413 -0.0827,-0.0827 l 0,-3.0428 c 0,-0.0413 0.0414,-0.0827 0.0827,-0.0827 l 3.0454,0 c 0.0413,0 0.0827,0.0414 0.0827,0.0827 l 0,3.0428 c 0,0.0414 -0.0414,0.0827 -0.0827,0.0827 l -3.0454,0 z m 5.3436,0 c -0.0496,0 -0.0827,-0.0413 -0.0827,-0.0827 l 0,-3.0428 c 0,-0.0413 0.0331,-0.0827 0.0827,-0.0827 l 3.0453,0 c 0.0497,0 0.0828,0.0414 0.0828,0.0827 l 0,3.0428 c 0,0.0414 -0.0331,0.0827 -0.0828,0.0827 l -3.0453,0 z" style="fill:#61d836;fill-opacity:1;fill-rule:nonzero;stroke:none" id="path4205" inkscape:connector-curvature="0"/><path d="m 411.6759,149.14787 c -0.5644,0 -1.0198,-0.4585 -1.0199,-1.0226 0,-0.564 0.4556,-1.0198 1.0199,-1.0198 l 1.3616,0 0,-2.7151 c -7.7956,-0.5273 -13.9767,-7.0342 -13.9767,-14.9612 -10e-5,-8.2708 6.7286,-14.9992 14.9992,-14.9992 8.2707,0 14.9992,6.7285 14.9993,14.9992 0,4.4007 -1.9052,8.3634 -4.9338,11.1097 0.0666,0.0478 0.1265,0.1093 0.1736,0.1818 l 0.5018,0.773 c 0.2039,0.3142 0.1135,0.7373 -0.2007,0.9411 l -2.3815,1.5461 c -0.3142,0.2039 -0.7373,0.1136 -0.9411,-0.2007 l -0.5018,-0.7758 c -0.0281,-0.0434 -0.0507,-0.0889 -0.0678,-0.1356 -1.7167,0.8528 -3.6164,1.3851 -5.6254,1.5216 l 0,2.7151 1.3616,0 c 0.5643,0 1.0198,0.4558 1.0198,1.0198 0,0.5641 -0.4555,1.0226 -1.0198,1.0226 l -4.7683,0 z m 2.3841,-6.7619 c 7.1441,0 12.9569,-5.8126 12.9569,-12.9568 0,-7.1441 -5.8129,-12.9568 -12.9569,-12.9568 -7.144,0 -12.9568,5.8127 -12.9568,12.9568 0,7.1442 5.8128,12.9568 12.9568,12.9568 z m 0,-3.2385 c -0.5642,0 -1.0225,-0.4557 -1.0225,-1.0198 l 0,-8.6985 c 0,-0.5641 0.4582,-1.0226 1.0225,-1.0226 0.5644,0 1.0227,0.4584 1.0226,1.0226 l 0,8.6985 c 0,0.564 -0.4582,1.0198 -1.0226,1.0198 z" style="fill:#00a2ff;fill-opacity:1;fill-rule:nonzero;stroke:none" id="path4207" inkscape:connector-curvature="0"/><text id="text4211" style="font-variant:normal;font-weight:500;font-size:20px;font-family:'Helvetica Neue',Helvetica,Roboto,Arial,sans-serif;writing-mode:lr-tb;fill:#000000;fill-opacity:1;fill-rule:nonzero;stroke:none" transform="scale(1,-1)" x="390.56" y="-154.67007"><tspan id="tspan4213" sodipodi:role="line" y="-154.67007" x="390.56 402.56 413.67999 424.79999">+24h</tspan></text>
<text id="text4217" style="font-variant:normal;font-weight:500;font-size:20px;font-family:'Helvetica Neue',Helvetica,Roboto,Arial,sans-serif;writing-mode:lr-tb;fill:#000000;fill-opacity:1;fill-rule:nonzero;stroke:none" transform="scale(1,-1)" x="200.56" y="-154.67007"><tspan id="tspan4219" sodipodi:role="line" y="-154.67007" x="200.56 211.67999 222.8 228.36 239.48">00:00</tspan></text>
<path d="m 82.060009,78.030888 0,-6.83055 -44,10.04493 44,10.04492 0,-6.83055 101.499991,0 0,6.83055 44,-10.04492 -44,-10.04493 0,6.83055 -101.499991,0 z" style="fill:#ef5fa7;fill-opacity:1;fill-rule:nonzero;stroke:none" id="path4221" inkscape:connector-curvature="0"/><path d="m 82.060009,34.075808 0,-6.83054 -44,10.04492 44,10.04492 0,-6.83055 288.999991,0 0,6.83055 44,-10.04492 -44,-10.04492 0,6.83054 -288.999991,0 z" style="fill:#f8ba00;fill-opacity:1;fill-rule:nonzero;stroke:none" id="path4223" inkscape:connector-curvature="0"/><text id="text4227" style="font-variant:normal;font-weight:500;font-size:20px;font-family:'Helvetica Neue',Helvetica,Roboto,Arial,sans-serif;writing-mode:lr-tb;fill:#000000;fill-opacity:1;fill-rule:nonzero;stroke:none" transform="scale(1,-1)" x="17.559999" y="-154.67007"><tspan id="tspan4229" sodipodi:role="line" y="-154.67007" x="17.559999 27.939999 34.599998 45.719997 52.759998">start</tspan></text>
<path d="m 235.9106,74.150248 c -0.1905,-0.006 -0.3805,-0.15173 -0.6966,-0.43604 -3.0582,-2.75076 -5.9542,-5.66337 -8.6718,-8.75174 -0.1661,-0.18874 -0.3467,-0.36607 -0.5547,-0.58569 -0.1841,0.26132 -0.3348,0.4668 -0.4748,0.67857 -1.1201,1.69512 -2.2271,3.39927 -3.3644,5.08283 -0.4541,0.67215 -0.9812,1.29573 -1.4655,1.94798 -0.2309,0.31085 -0.5223,0.31876 -0.8566,0.23479 -0.3365,-0.08454 -0.5322,-0.31419 -0.5367,-0.6347 -0.007,-0.49951 -0.2844,-0.72454 -0.7095,-0.86176 -0.2932,0.21813 -0.58,0.43168 -0.9082,0.67599 -0.3532,-0.37938 -0.6619,-0.7291 -0.9908,-1.06043 -0.2917,-0.29376 -0.3038,-0.59134 -0.178,-0.98302 1.1196,-3.48923 2.5559,-6.83902 4.3113,-10.05471 0.0901,-0.16512 0.1703,-0.33613 0.2529,-0.49796 -2.4199,-2.84101 -4.8158,-5.65464 -7.2011,-8.45503 0.1967,-0.46698 0.3506,-0.86337 0.5315,-1.24877 0.1286,-0.27412 0.1426,-0.52717 -0.008,-0.79468 -0.1044,-0.18568 -0.1961,-0.37872 -0.2709,-0.57794 -0.0417,-0.11096 -0.0884,-0.26378 -0.0465,-0.35864 0.3399,-0.76924 0.8292,-1.42315 1.4552,-1.92993 0.3094,0.13045 0.5383,0.25094 0.7818,0.32252 0.2808,0.08256 0.518,-0.09078 0.4308,-0.34574 -0.1902,-0.55697 0.2049,-0.83197 0.4799,-1.16363 0.2231,-0.26907 0.5871,-0.26457 0.8386,-0.01548 0.0901,0.08924 0.1542,0.20257 0.2322,0.30446 1.9636,2.56484 3.9273,5.13062 5.893,7.69389 0.1399,0.18247 0.2956,0.35096 0.4954,0.58569 0.1905,-0.28996 0.3436,-0.51412 0.4902,-0.74307 1.1662,-1.82193 2.4303,-3.57226 3.8211,-5.22989 0.3989,-0.4754 0.6657,-0.5211 1.1404,-0.13933 0.3625,0.29146 0.6809,0.63764 1.0321,0.97012 0.4007,-0.24554 0.8119,-0.49781 1.2204,-0.74823 0.2408,0.19955 0.4183,0.35007 0.6011,0.49538 0.2698,0.21434 0.4809,0.42667 0.5264,0.82306 0.0458,0.39977 0.2636,0.76885 0.725,0.89014 0.3526,0.09272 0.5888,0.34352 0.774,0.63729 0.2962,0.46962 0.5245,0.97208 0.627,1.47324 -2.0312,2.57483 -4.0293,5.10743 -6.0452,7.66294 0.2199,0.28921 0.3593,0.4779 0.5031,0.66309 2.4471,3.14551 5.0869,6.12095 7.8926,8.95041 0.3434,0.34627 0.6742,0.69155 0.9185,1.13525 0.4666,0.84751 0.4843,0.81804 -0.0722,1.56871 -0.2055,0.27717 -0.4332,0.34786 -0.7586,0.35347 -0.6219,0.01066 -0.9068,0.39842 -0.805,0.98561 0.0226,0.12995 -0.002,0.30228 -0.0748,0.40508 -0.1722,0.24191 -0.3649,0.47913 -0.5883,0.67341 -0.3155,0.27444 -0.5061,0.40851 -0.6966,0.40249 z" style="fill:#16e7cf;fill-opacity:1;fill-rule:nonzero;stroke:none" id="path4231" inkscape:connector-curvature="0"/></g></svg>